<?xml version="1.0" encoding="utf-8"?>
<!-- Generator: Adobe Illustrator 24.0.2, SVG Export Plug-In . SVG Version: 6.00 Build 0)  -->
<svg version="1.1" id="Capa_1" xmlns="http://www.w3.org/2000/svg" xmlns:xlink="http://www.w3.org/1999/xlink" x="0px" y="0px"
	 viewBox="0 0 1600 600" style="enable-background:new 0 0 1600 600;" xml:space="preserve">
<style type="text/css">
	.st0{fill:url(#SVGID_1_);}
	.st1{fill:url(#SVGID_2_);}
</style>
<g>
	<image style="overflow:visible;" width="1636" height="393" xlink:href="BAE9187F.png"  transform="matrix(1 0 0 1 -41 216)">
	</image>
	<g>
		
			<linearGradient id="SVGID_1_" gradientUnits="userSpaceOnUse" x1="-2.5" y1="219.44" x2="1602.5" y2="219.44" gradientTransform="matrix(1 0 0 1 0 200)">
			<stop  offset="8.379889e-03" style="stop-color:#38A7DF"/>
			<stop  offset="0.2263" style="stop-color:#0F669B"/>
			<stop  offset="0.5419" style="stop-color:#015294"/>
			<stop  offset="0.8352" style="stop-color:#0F669B"/>
			<stop  offset="1" style="stop-color:#38A7DF"/>
		</linearGradient>
		<path class="st0" d="M799.3,279C431.9,530.4,116.1,134.8-2.5,266.2v334h1605v-338C1260.4,544.2,962.4,136.2,799.3,279z"/>
	</g>
</g>
<linearGradient id="SVGID_2_" gradientUnits="userSpaceOnUse" x1="-236.3" y1="-403.7849" x2="1363.7" y2="-403.7849" gradientTransform="matrix(1 0 0 -1 0 600)">
	<stop  offset="8.379889e-03" style="stop-color:#38A7DF"/>
	<stop  offset="0.2263" style="stop-color:#0F669B"/>
	<stop  offset="0.5419" style="stop-color:#015294"/>
	<stop  offset="0.8352" style="stop-color:#0F669B"/>
	<stop  offset="1" style="stop-color:#38A7DF"/>
</linearGradient>
<path class="st1" d="M563.7,830.1c-25.6-5.5-171,24.8-322.1,98.7c-129.5,46.8-289.8,68-477.9-60.7v310h800h800V868
	c-197.5,135.1-365.8,114.7-497,53.6C750.1,878.9,606.1,824.3,563.7,830.1z"/>
</svg>
